<?xml version="1.0" encoding="utf-8"?>
<!-- Generator: Adobe Illustrator 16.0.0, SVG Export Plug-In . SVG Version: 6.00 Build 0)  -->
<!DOCTYPE svg PUBLIC "-//W3C//DTD SVG 1.1//EN" "http://www.w3.org/Graphics/SVG/1.1/DTD/svg11.dtd">
<svg version="1.1" id="Layer_1" xmlns="http://www.w3.org/2000/svg" xmlns:xlink="http://www.w3.org/1999/xlink" x="0px" y="0px"
	 width="150.001px" height="135.024px" viewBox="0 0 150.001 135.024" enable-background="new 0 0 150.001 135.024"
	 xml:space="preserve">
<path fill="#E5E5E5" d="M149.207,116.712l-26.518-15.054c-1.044-0.597-3.628-1.087-5.732-1.087H63.921
	c-2.104,0-4.671,0.49-5.731,1.087l-26.516,15.054c-1.045,0.597-1.045,1.576,0,2.172l26.516,15.055
	c1.06,0.597,3.626,1.086,5.731,1.086h53.036c2.104,0,4.688-0.489,5.732-1.086l26.518-15.055
	C150.266,118.288,150.266,117.309,149.207,116.712z"/>
<path fill="#374D9F" d="M72.723,49.061V36.2c0.093,0.063,0.171,0.159,0.266,0.237l15.929,16.075c0.094,0.094,0.172,0.188,0.25,0.267
	c-0.108,0.016-0.233,0.016-0.358,0.016H76.423C74.378,52.795,72.723,51.126,72.723,49.061z M74.05,75.331
	c0-7.389,5.949-13.38,13.26-13.38c0.781,0,1.529,0.096,2.279,0.222v-4.697c-0.265,0.017-0.5,0.048-0.78,0.048H76.423
	c-4.623,0-8.384-3.798-8.384-8.463V36.563c0-0.284,0.028-0.52,0.044-0.772H49.922c-2.032,0-3.686,1.671-3.686,3.736v51
	c0,2.063,1.654,3.731,3.686,3.731h35.966c2.03,0,3.701-1.669,3.701-3.731v-2.019c-0.75,0.126-1.498,0.204-2.279,0.204
	C79.999,88.712,74.05,82.723,74.05,75.331z M87.31,66.679c-4.717,0-8.574,3.894-8.574,8.652c0,4.776,3.857,8.652,8.574,8.652
	c4.73,0,8.574-3.876,8.574-8.652C95.884,70.572,92.04,66.679,87.31,66.679z M145.078,69.106l-32.5,56.831
	c-1.296,2.253-4.467,4.097-7.028,4.097H40.503c-2.576,0-5.731-1.844-7.028-4.097l-7.136-12.467l-0.422-0.741L0.961,69.106
	c-1.281-2.253-1.281-5.941,0-8.194L33.475,4.082C34.771,1.829,37.927,0,40.503,0h65.047c2.562,0,5.732,1.829,7.028,4.082
	l32.5,56.831C146.373,63.165,146.373,66.854,145.078,69.106z M110.063,94.954L98.194,82.976c1.5-2.175,2.375-4.809,2.375-7.645
	c0-4.806-2.531-9.015-6.295-11.362V53.457h-0.016c0.031-1.119-0.359-2.601-2.031-4.286L76.301,33.096
	c-1.252-1.261-2.532-1.922-3.813-2.018v-0.015H72.27c-0.017,0-0.047-0.016-0.079-0.016c-0.03,0-0.078,0.016-0.108,0.016h-22.16
	c-4.623,0-8.371,3.798-8.371,8.463v51c0,4.664,3.748,8.461,8.371,8.461h35.966c4.623,0,8.387-3.797,8.387-8.461V86.71
	c0.203-0.125,0.406-0.251,0.609-0.395l11.869,11.979c0.453,0.457,1.047,0.693,1.655,0.693c0.594,0,1.202-0.236,1.655-0.693
	C110.97,97.365,110.97,95.868,110.063,94.954z"/>
</svg>
