<?xml version="1.0" encoding="utf-8"?>
<!-- Generator: Adobe Illustrator 16.0.0, SVG Export Plug-In . SVG Version: 6.00 Build 0)  -->
<!DOCTYPE svg PUBLIC "-//W3C//DTD SVG 1.1//EN" "http://www.w3.org/Graphics/SVG/1.1/DTD/svg11.dtd">
<svg version="1.1" id="Layer_1" xmlns="http://www.w3.org/2000/svg" xmlns:xlink="http://www.w3.org/1999/xlink" x="0px" y="0px"
	 width="150.001px" height="135.999px" viewBox="0 0 150.001 135.999" enable-background="new 0 0 150.001 135.999"
	 xml:space="preserve">
<path fill="#E5E5E5" d="M149.207,117.69l-26.512-15.051c-1.045-0.598-3.628-1.086-5.731-1.086H63.938
	c-2.104,0-4.671,0.488-5.73,1.086L31.695,117.69c-1.044,0.596-1.044,1.576,0,2.172l26.512,15.051c1.06,0.598,3.626,1.086,5.73,1.086
	h53.026c2.104,0,4.687-0.488,5.731-1.086l26.512-15.051C150.266,119.266,150.266,118.286,149.207,117.69z"/>
<path fill="#374D9F" d="M77.502,40.541v10.527c0,1.639,1.328,2.962,2.935,2.962h10.447L77.502,40.541z M91.259,58.758H80.437
	c-4.199,0-7.619-3.452-7.619-7.689V40.165c0-0.144,0.031-0.253,0.031-0.379H57.313c-1.609,0-2.922,1.324-2.922,2.962v44.53
	c0,1.621,1.313,2.961,2.922,2.961h31.402c1.606,0,2.918-1.34,2.918-2.961V58.742C91.508,58.742,91.399,58.758,91.259,58.758z
	 M91.259,58.758H80.437c-4.199,0-7.619-3.452-7.619-7.689V40.165c0-0.144,0.031-0.253,0.031-0.379H57.313
	c-1.609,0-2.922,1.324-2.922,2.962v44.53c0,1.621,1.313,2.961,2.922,2.961h31.402c1.606,0,2.918-1.34,2.918-2.961V58.742
	C91.508,58.742,91.399,58.758,91.259,58.758z M77.502,40.541v10.527c0,1.639,1.328,2.962,2.935,2.962h10.447L77.502,40.541z
	 M77.502,40.541v10.527c0,1.639,1.328,2.962,2.935,2.962h10.447L77.502,40.541z M91.259,58.758H80.437
	c-4.199,0-7.619-3.452-7.619-7.689V40.165c0-0.144,0.031-0.253,0.031-0.379H57.313c-1.609,0-2.922,1.324-2.922,2.962v44.53
	c0,1.621,1.313,2.961,2.922,2.961h31.402c1.606,0,2.918-1.34,2.918-2.961V58.742C91.508,58.742,91.399,58.758,91.259,58.758z
	 M91.259,58.758H80.437c-4.199,0-7.619-3.452-7.619-7.689V40.165c0-0.144,0.031-0.253,0.031-0.379H57.313
	c-1.609,0-2.922,1.324-2.922,2.962v44.53c0,1.621,1.313,2.961,2.922,2.961h31.402c1.606,0,2.918-1.34,2.918-2.961V58.742
	C91.508,58.742,91.399,58.758,91.259,58.758z M80.437,54.03h10.447L77.502,40.541v10.527C77.502,52.707,78.83,54.03,80.437,54.03z
	 M145.052,60.899L112.558,4.081C111.261,1.844,108.107,0,105.531,0H40.494c-2.561,0-5.731,1.844-7.028,4.081L0.973,60.917
	c-1.297,2.236-1.297,5.924,0,8.177l24.937,43.616l0.438,0.74l7.119,12.48c1.297,2.236,4.468,4.08,7.028,4.08h65.037
	c2.576,0,5.729-1.844,7.026-4.08l32.494-56.836C146.348,66.841,146.348,63.153,145.052,60.899z M90.15,22.375h10.415
	c3.873,0,7.027,3.182,7.027,7.091v10.508c0,1.292-1.046,2.364-2.343,2.364c-1.296,0-2.342-1.072-2.342-2.364V29.466
	c0-1.309-1.046-2.365-2.343-2.365H90.15c-1.295,0-2.342-1.055-2.342-2.363C87.809,23.431,88.855,22.375,90.15,22.375z
	 M76.753,35.044c0.03,0,0.063,0.016,0.093,0.016h0.157v0.014c1.202,0.08,2.388,0.694,3.543,1.859l13.913,14.024
	c1.468,1.482,1.858,2.807,1.858,3.828v32.493c0,4.238-3.403,7.688-7.603,7.688H57.313c-4.201,0-7.606-3.449-7.606-7.688v-44.53
	c0-4.239,3.405-7.688,7.606-7.688h19.314C76.658,35.06,76.705,35.044,76.753,35.044z M37.919,29.466
	c0-3.909,3.153-7.091,7.025-7.091h10.415c1.297,0,2.343,1.056,2.343,2.363c0,1.309-1.046,2.363-2.343,2.363H44.944
	c-1.281,0-2.342,1.056-2.342,2.365v10.508c0,1.292-1.046,2.364-2.343,2.364c-1.281,0-2.341-1.072-2.341-2.364V29.466z
	 M55.359,107.635H44.944c-3.872,0-7.025-3.184-7.025-7.092v-10.51c0-1.291,1.06-2.363,2.341-2.363c1.297,0,2.343,1.072,2.343,2.363
	v10.51c0,1.309,1.061,2.363,2.342,2.363h10.415c1.297,0,2.343,1.057,2.343,2.365C57.702,106.579,56.656,107.635,55.359,107.635z
	 M108.107,100.543c0,3.908-3.154,7.092-7.026,7.092H90.665c-1.295,0-2.341-1.057-2.341-2.363c0-1.309,1.046-2.365,2.341-2.365
	h10.416c1.279,0,2.343-1.055,2.343-2.363v-10.51c0-1.291,1.046-2.363,2.342-2.363c1.279,0,2.342,1.072,2.342,2.363V100.543z
	 M72.849,39.786H57.313c-1.609,0-2.922,1.324-2.922,2.962v44.53c0,1.621,1.313,2.961,2.922,2.961h31.402
	c1.606,0,2.918-1.34,2.918-2.961V58.742c-0.125,0-0.233,0.016-0.374,0.016H80.437c-4.199,0-7.619-3.452-7.619-7.689V40.165
	C72.817,40.021,72.849,39.912,72.849,39.786z M80.437,54.03h10.447L77.502,40.541v10.527C77.502,52.707,78.83,54.03,80.437,54.03z
	 M77.502,40.541v10.527c0,1.639,1.328,2.962,2.935,2.962h10.447L77.502,40.541z M91.259,58.758H80.437
	c-4.199,0-7.619-3.452-7.619-7.689V40.165c0-0.144,0.031-0.253,0.031-0.379H57.313c-1.609,0-2.922,1.324-2.922,2.962v44.53
	c0,1.621,1.313,2.961,2.922,2.961h31.402c1.606,0,2.918-1.34,2.918-2.961V58.742C91.508,58.742,91.399,58.758,91.259,58.758z
	 M91.259,58.758H80.437c-4.199,0-7.619-3.452-7.619-7.689V40.165c0-0.144,0.031-0.253,0.031-0.379H57.313
	c-1.609,0-2.922,1.324-2.922,2.962v44.53c0,1.621,1.313,2.961,2.922,2.961h31.402c1.606,0,2.918-1.34,2.918-2.961V58.742
	C91.508,58.742,91.399,58.758,91.259,58.758z M77.502,40.541v10.527c0,1.639,1.328,2.962,2.935,2.962h10.447L77.502,40.541z"/>
</svg>
