<?xml version="1.0" encoding="utf-8"?>
<!-- Generator: Adobe Illustrator 16.0.0, SVG Export Plug-In . SVG Version: 6.00 Build 0)  -->
<!DOCTYPE svg PUBLIC "-//W3C//DTD SVG 1.1//EN" "http://www.w3.org/Graphics/SVG/1.1/DTD/svg11.dtd">
<svg version="1.1" id="Layer_1" xmlns="http://www.w3.org/2000/svg" xmlns:xlink="http://www.w3.org/1999/xlink" x="0px" y="0px"
	 width="150.001px" height="134.996px" viewBox="0 0 150.001 134.996" enable-background="new 0 0 150.001 134.996"
	 xml:space="preserve">
<path fill="#E5E5E5" d="M149.206,116.688l-26.512-15.051c-1.044-0.597-3.625-1.086-5.729-1.086H63.939
	c-2.103,0-4.67,0.489-5.73,1.086l-26.511,15.051c-1.044,0.597-1.044,1.575,0,2.172l26.511,15.051c1.06,0.597,3.627,1.086,5.73,1.086
	h53.027c2.104,0,4.685-0.489,5.729-1.086l26.512-15.051C150.266,118.263,150.266,117.284,149.206,116.688z"/>
<path fill="#374D9F" d="M145.053,60.899L112.541,4.081C111.263,1.827,108.092,0,105.516,0H40.497c-2.577,0-5.73,1.827-7.027,4.081
	L0.959,60.899c-1.279,2.253-1.279,5.939,0,8.192l24.954,43.614l0.42,0.741l7.136,12.464c1.296,2.252,4.45,4.096,7.027,4.096h65.019
	c2.576,0,5.747-1.844,7.025-4.096l32.512-56.819C146.349,66.839,146.349,63.152,145.053,60.899z M52.363,98.746
	c-0.015,0-0.031,0-0.031,0c-0.265,0.109-0.563,0.173-0.859,0.173H35.609c-1.28,0-2.341-1.056-2.341-2.363V80.547
	c0-0.3,0.062-0.582,0.17-0.851c0-0.017,0-0.031,0.017-0.048c0.108-0.282,0.281-0.551,0.499-0.771l48.406-48.846
	c1.468-1.481,3.436-2.3,5.527-2.3s4.044,0.819,5.512,2.3l8.136,8.209c3.044,3.073,3.044,8.068,0,11.14L53.128,98.226
	C52.911,98.446,52.645,98.62,52.363,98.746z M83.405,98.668c-0.406,0.282-0.889,0.456-1.389,0.456H62.608
	c-1.296,0-2.342-1.07-2.342-2.363c0-1.308,1.046-2.363,2.342-2.363h18.564c2.327-2.175,4.31-6.916,3.591-8.935
	c-0.077-0.236-0.218-0.583-1.342-0.536c-0.735,0.047-1.218,0.222-1.437,0.536c-0.469,0.708-0.266,2.442,0.063,3.435
	c0.406,1.229-0.25,2.569-1.469,2.995c-1.218,0.424-2.544-0.237-2.967-1.466c-0.155-0.456-1.499-4.633,0.5-7.61
	c0.734-1.104,2.217-2.457,5.075-2.601c2.983-0.156,5.137,1.198,5.997,3.672C90.76,88.396,87.326,95.768,83.405,98.668z
	 M109.525,99.124H90.213c-1.295,0-2.342-1.07-2.342-2.363c0-1.308,1.047-2.363,2.342-2.363h19.313c1.297,0,2.343,1.056,2.343,2.363
	C111.868,98.054,110.822,99.124,109.525,99.124z M90.088,33.388c-1.17-1.198-3.247-1.198-4.418,0l-4.217,4.255l9.884,9.974
	c0.906,0.914,0.906,2.41,0,3.34c-0.468,0.457-1.062,0.693-1.653,0.693c-0.609,0-1.203-0.236-1.656-0.693l-9.883-9.974L37.951,81.54
	v12.651h12.555L98.223,46.04c0.578-0.599,0.906-1.386,0.906-2.237c0-0.835-0.328-1.623-0.906-2.221L90.088,33.388z"/>
</svg>
