<svg version="1.1" xmlns="http://www.w3.org/2000/svg" xmlns:xlink="http://www.w3.org/1999/xlink" x="0px" y="0px" width="193.742px" height="22.229px" viewBox="0 0 193.742 22.229" enable-background="new 0 0 193.742 22.229" xml:space="preserve">
						<path fill="#b8b8b8" d="M46.125,2.036L45.348,5.78h-5.801l-3.296,15.887H31.32L34.616,5.78h-5.801l0.778-3.743H46.125z M64.389,6.861	l-4.258,9.796l-0.62-9.796h-4.074l-4.838,9.796l-0.237-9.796H45.51l1.213,14.806h4.904l4.588-9.571l0.62,9.571h4.904l7.396-14.806	H64.389z M83.155,8.503c1.045,1.4,1.313,3.324,0.803,5.767c-0.501,2.437-1.564,4.354-3.19,5.755	c-1.626,1.402-3.656,2.104-6.091,2.104c-2.417,0-4.148-0.7-5.194-2.104c-1.046-1.4-1.318-3.318-0.817-5.755
						c0.51-2.46,1.58-4.388,3.21-5.779C73.506,7.097,75.53,6.4,77.947,6.4C80.373,6.4,82.109,7.101,83.155,8.503z M79.462,12.102
						c-0.026-0.585-0.132-1.053-0.316-1.403c-0.193-0.369-0.446-0.627-0.758-0.771S77.7,9.71,77.261,9.71c-0.413,0-0.8,0.063-1.16,0.189
						c-0.36,0.128-0.716,0.372-1.068,0.731c-0.343,0.344-0.655,0.813-0.936,1.411c-0.281,0.598-0.514,1.35-0.699,2.255
						c-0.193,0.905-0.272,1.637-0.237,2.194c0.035,0.559,0.136,1.005,0.303,1.339c0.176,0.342,0.431,0.593,0.765,0.751
						s0.725,0.236,1.173,0.236c0.369,0,0.762-0.078,1.18-0.236c0.417-0.158,0.771-0.396,1.061-0.712c0.352-0.378,0.653-0.833,0.903-1.364
						c0.251-0.532,0.477-1.269,0.679-2.208C79.41,13.418,79.489,12.686,79.462,12.102z M100.105,2.035
						c-1.104-0.237-2.238-0.356-3.409-0.356c-2.329,0-4.391,0.569-6.184,1.707c-1.792,1.139-2.882,2.626-3.269,4.463
						c-0.281,1.362-0.187,2.496,0.284,3.401c0.47,0.904,1.413,1.626,2.827,2.162c0.608,0.228,1.275,0.422,2.004,0.58
						c0.731,0.157,1.412,0.324,2.045,0.501c0.5,0.141,0.914,0.364,1.238,0.672c0.326,0.308,0.435,0.708,0.33,1.2
						c-0.088,0.439-0.279,0.793-0.574,1.062c-0.293,0.268-0.631,0.477-1.008,0.626c-0.309,0.132-0.699,0.229-1.174,0.29
						c-0.475,0.062-0.852,0.092-1.133,0.092c-1.118,0-2.22-0.224-3.31-0.672s-2.044-1.09-2.861-1.925h-0.448l-0.962,4.667
						c0.888,0.431,1.87,0.791,2.947,1.081c1.077,0.29,2.367,0.435,3.869,0.435c2.612,0,4.806-0.595,6.584-1.78
						c1.779-1.187,2.871-2.757,3.275-4.707c0.281-1.361,0.178-2.458-0.309-3.289c-0.488-0.83-1.365-1.491-2.631-1.984
						c-0.643-0.245-1.252-0.438-1.832-0.58c-0.58-0.14-1.187-0.286-1.82-0.435c-0.967-0.237-1.598-0.503-1.891-0.799
						c-0.295-0.294-0.39-0.691-0.285-1.192c0.07-0.343,0.246-0.653,0.527-0.929c0.281-0.277,0.59-0.485,0.924-0.626
						c0.412-0.177,0.797-0.295,1.154-0.356c0.356-0.061,0.748-0.092,1.18-0.092c1.108,0,2.143,0.215,3.104,0.646
						c0.963,0.432,1.742,0.958,2.34,1.582h0.437l0.936-4.481C102.177,2.593,101.208,2.272,100.105,2.035z M117.296,8.503
						c1.045,1.4,1.313,3.324,0.804,5.767c-0.5,2.437-1.563,4.354-3.189,5.755c-1.626,1.402-3.656,2.104-6.092,2.104
						c-2.416,0-4.147-0.7-5.193-2.104c-1.046-1.4-1.318-3.318-0.816-5.755c0.51-2.46,1.58-4.388,3.209-5.779
						c1.631-1.394,3.654-2.091,6.071-2.091C114.516,6.4,116.25,7.101,117.296,8.503z M113.604,12.102
						c-0.025-0.585-0.131-1.053-0.316-1.403c-0.193-0.369-0.445-0.627-0.758-0.771s-0.688-0.217-1.127-0.217
						c-0.414,0-0.801,0.063-1.16,0.189c-0.36,0.128-0.717,0.372-1.068,0.731c-0.342,0.344-0.654,0.813-0.936,1.411
						c-0.282,0.598-0.514,1.35-0.699,2.255c-0.193,0.905-0.271,1.637-0.236,2.194c0.034,0.559,0.137,1.005,0.303,1.339
						c0.177,0.342,0.432,0.593,0.766,0.751s0.727,0.236,1.173,0.236c0.369,0,0.763-0.078,1.181-0.236s0.771-0.396,1.063-0.712
						c0.352-0.378,0.652-0.833,0.902-1.364c0.248-0.532,0.475-1.269,0.678-2.208C113.551,13.418,113.631,12.686,113.604,12.102z
						M131.564,6.451c-0.869,0-1.701,0.181-2.492,0.541c-0.79,0.359-1.631,0.86-2.518,1.503l0.344-1.636h-4.615l-3.071,14.806h4.614
						l2.176-10.494c0.5-0.309,0.96-0.531,1.377-0.672c0.418-0.142,0.814-0.211,1.193-0.211c0.501,0,0.885,0.071,1.152,0.217
						c0.269,0.146,0.446,0.385,0.534,0.719c0.079,0.282,0.079,0.719,0,1.313s-0.181,1.188-0.303,1.785l-1.517,7.345h4.641l1.992-9.639
						c0.377-1.81,0.266-3.192-0.338-4.146C134.133,6.928,133.076,6.451,131.564,6.451z M151.723,2.035
						c-1.104-0.237-2.24-0.356-3.408-0.356c-2.33,0-4.392,0.569-6.185,1.707c-1.793,1.139-2.883,2.626-3.271,4.463
						c-0.28,1.362-0.187,2.496,0.285,3.401c0.469,0.904,1.412,1.626,2.826,2.162c0.608,0.228,1.274,0.422,2.004,0.58
						c0.73,0.157,1.411,0.324,2.045,0.501c0.5,0.141,0.914,0.364,1.238,0.672c0.325,0.308,0.436,0.708,0.33,1.2
						c-0.089,0.439-0.279,0.793-0.574,1.062c-0.293,0.268-0.631,0.477-1.008,0.626c-0.309,0.132-0.699,0.229-1.174,0.29
						s-0.854,0.092-1.135,0.092c-1.116,0-2.221-0.224-3.309-0.672c-1.09-0.448-2.043-1.09-2.861-1.925h-0.447l-0.963,4.667
						c0.887,0.431,1.869,0.791,2.947,1.081c1.076,0.29,2.365,0.435,3.869,0.435c2.609,0,4.805-0.592,6.584-1.779
						c1.78-1.187,2.873-2.757,3.276-4.707c0.281-1.361,0.177-2.458-0.31-3.289c-0.488-0.83-1.364-1.491-2.631-1.984
						c-0.643-0.245-1.252-0.438-1.832-0.58c-0.58-0.14-1.187-0.286-1.819-0.435c-0.968-0.237-1.599-0.503-1.892-0.798
						c-0.295-0.295-0.39-0.692-0.285-1.193c0.07-0.343,0.246-0.653,0.527-0.929c0.281-0.277,0.59-0.485,0.924-0.626
						c0.412-0.177,0.797-0.294,1.153-0.356c0.356-0.061,0.749-0.092,1.181-0.092c1.106,0,2.142,0.215,3.104,0.646
						c0.963,0.432,1.742,0.958,2.34,1.582h0.436l0.938-4.482C153.793,2.593,152.825,2.272,151.723,2.035z M168.909,8.503
						c1.045,1.4,1.313,3.324,0.804,5.767c-0.501,2.437-1.564,4.354-3.189,5.755c-1.627,1.402-3.656,2.104-6.092,2.104
						c-2.416,0-4.147-0.7-5.193-2.104c-1.047-1.4-1.318-3.318-0.817-5.755c0.511-2.46,1.58-4.388,3.21-5.779
						c1.631-1.394,3.654-2.091,6.071-2.091C166.128,6.4,167.863,7.101,168.909,8.503z M165.216,12.102
						c-0.024-0.585-0.131-1.053-0.315-1.403c-0.193-0.369-0.445-0.627-0.758-0.771s-0.688-0.217-1.127-0.217
						c-0.414,0-0.801,0.063-1.16,0.189c-0.36,0.128-0.717,0.372-1.068,0.731c-0.342,0.344-0.654,0.813-0.936,1.411
						c-0.283,0.598-0.515,1.35-0.699,2.255c-0.193,0.905-0.272,1.637-0.236,2.194c0.034,0.559,0.136,1.005,0.303,1.339
						c0.176,0.342,0.432,0.593,0.766,0.751s0.726,0.236,1.173,0.236c0.368,0,0.763-0.078,1.181-0.236
						c0.417-0.158,0.771-0.396,1.063-0.712c0.351-0.378,0.651-0.833,0.901-1.364c0.25-0.532,0.476-1.269,0.679-2.208
						C165.164,13.418,165.244,12.686,165.216,12.102z M178.71,6.862l0.026-0.118c0.193-0.941,0.494-1.582,0.902-1.926
						c0.408-0.343,1.078-0.514,2.01-0.514c0.334,0,0.681,0.042,1.035,0.125c0.356,0.083,0.617,0.151,0.785,0.204h0.355l0.699-3.349
						c-0.404-0.079-0.893-0.143-1.463-0.191c-0.572-0.048-1.191-0.072-1.858-0.072c-1.927,0-3.457,0.453-4.595,1.358
						c-1.139,0.906-1.896,2.263-2.274,4.074l-0.079,0.408h-1.846l-0.674,3.218h1.847l-2.397,11.588h4.612l2.399-11.588h3.507l0.673-3.218
						H178.71z M187.547,15.324l1.08-5.246h4.443l0.672-3.218H189.3l0.884-4.231h-4.615l-0.883,4.231h-1.767l-0.673,3.218h1.768
						l-1.438,6.921c-0.36,1.758-0.193,3.023,0.501,3.797c0.694,0.772,1.981,1.16,3.862,1.16c0.818,0,1.515-0.037,2.091-0.112
						c0.575-0.075,1.132-0.178,1.668-0.31l0.672-3.258h-0.396c-0.176,0.09-0.474,0.187-0.896,0.291c-0.422,0.105-0.757,0.158-1.002,0.158
						c-0.599,0-1.036-0.091-1.313-0.271c-0.275-0.181-0.44-0.423-0.494-0.731c-0.069-0.308-0.069-0.656,0-1.042
						C187.34,16.296,187.432,15.844,187.547,15.324z M19.354,0.433C19.216,0.195,18.879,0,18.604,0H8.285C8.01,0,7.897,0.195,8.035,0.433
						l5.16,8.937c0.138,0.237,0.475,0.433,0.75,0.433h10.318c0.275,0,0.388-0.195,0.25-0.433L19.354,0.433z M10.921,10.682L5.762,1.745
						c-0.138-0.238-0.362-0.238-0.5,0l-5.159,8.937c-0.138,0.238-0.138,0.628,0,0.866l5.159,8.936c0.138,0.237,0.362,0.237,0.5,0
						l5.159-8.936C11.059,11.31,11.059,10.92,10.921,10.682z M24.263,12.427H13.945c-0.275,0-0.612,0.196-0.75,0.433l-5.16,8.937
						c-0.138,0.238-0.025,0.433,0.25,0.433h10.319c0.275,0,0.612-0.195,0.75-0.433l5.159-8.937
						C24.651,12.622,24.538,12.427,24.263,12.427z"></path>
					</svg>