<svg version="1.1" xmlns="http://www.w3.org/2000/svg" xmlns:xlink="http://www.w3.org/1999/xlink" x="0px" y="0px" width="47.998px" height="48.021px" viewBox="0 0 47.998 48.021" enable-background="new 0 0 47.998 48.021" xml:space="preserve">
	<path d="M44.998,37.513l-13.061-6.196c4.157-3.273,5.564-9.705,5.564-13.309v-7.505C37.502,5.533,30.625,0,23.999,0	c-6.627,0-13.513,5.533-13.513,10.503v7.505c0,3.278,1.496,9.911,5.693,13.282L2.999,37.513c0,0-2.999,1.338-2.999,3.002v4.506	c0,1.658,1.343,3.001,2.999,3.001h41.999c1.657,0,3-1.343,3-3.001v-4.506C47.998,38.75,44.998,37.513,44.998,37.513z M3.001,45.021	v-3.047c0-1.193,0.896-1.568,1.253-1.733l13.181-6.223c0.944-0.435,1.597-1.328,1.724-2.36s-0.289-2.058-1.1-2.709	c-3.118-2.504-4.57-8.009-4.57-10.94v-7.505c0-3.137,5.459-7.5,10.511-7.5c5.097,0,10.501,4.295,10.501,7.5v7.505	c0,2.888-1.2,8.413-4.42,10.949c-0.82,0.646-1.247,1.675-1.124,2.713c0.123,1.04,0.778,1.938,1.728,2.375l13.062,6.197	c0.102,0.046,1.252,0.24,1.252,1.846l0.001,2.931L3.001,45.021z"></path>
</svg>