<svg version="1.1" xmlns="http://www.w3.org/2000/svg" xmlns:xlink="http://www.w3.org/1999/xlink" x="0px" y="0px" width="36.004px" height="48px" viewBox="0 0 36.004 48" enable-background="new 0 0 36.004 48" xml:space="preserve">
	<path d="M18.174,0C8.334,0,0,8.38,0,18.304c0,10.393,9.659,21.031,16.156,28.502C16.181,46.835,17.23,48,18.523,48	c0.004,0,0.11,0,0.115,0c1.293,0,2.336-1.165,2.362-1.193c6.099-7.009,15.002-18.572,15.002-28.502C36.004,8.38,29.504,0,18.174,0z	M18.785,45.031c-0.055,0.054-0.131,0.113-0.198,0.16c-0.069-0.047-0.146-0.106-0.201-0.16l-0.795-0.912	C11.363,36.979,2.835,27.167,2.835,18.23c0-8.385,7.025-15.47,15.341-15.47c10.356,0,14.993,7.77,14.993,15.471	C33.169,25.016,28.33,34.053,18.785,45.031z M18.668,11.129c-3.814,0-6.907,3.111-6.907,6.948c0,3.838,3.093,6.948,6.907,6.948	c3.814,0,6.908-3.11,6.908-6.948C25.576,14.24,22.482,11.129,18.668,11.129z M18.667,22.272c-2.3,0-4.22-1.929-4.22-4.242	c0-2.315,1.872-4.197,4.172-4.197c2.301,0,4.172,1.882,4.172,4.197C22.791,20.344,20.969,22.272,18.667,22.272z"></path>
</svg>