<svg version="1.1" xmlns="http://www.w3.org/2000/svg" xmlns:xlink="http://www.w3.org/1999/xlink" x="0px" y="0px" width="47.982px" height="48.004px" viewBox="0 0 47.982 48.004" enable-background="new 0 0 47.982 48.004" xml:space="preserve">
	<path d="M44.6,0.099L24.79,5.465c-0.503,0.135-1.598,0.133-2.1-0.007l-19.3-5.349C1.668-0.365,0,0.877,0,2.651V39.09	c0,1.502,1.14,2.939,2.59,3.344l19.301,5.348c0.518,0.145,1.181,0.223,1.871,0.223c0.473,0,1.17-0.037,1.813-0.211l19.81-5.367 c1.455-0.393,2.599-1.827,2.599-3.336V2.651C47.983,0.879,46.315-0.368,44.6,0.099z M3.344,39.545 c-0.145-0.041-0.347-0.305-0.347-0.455V3.124l18.894,5.223c0.179,0.049,0.395,0.081,0.604,0.114v36.377L3.344,39.545z M44.986,39.09 c0,0.147-0.242,0.404-0.386,0.445L25.49,44.711V8.375c0.027-0.007,0.056-0.011,0.084-0.019l19.411-5.251V39.09z M30.08,17.18	c0.134,0,0.271-0.018,0.406-0.056l10.487-2.952c0.798-0.226,1.261-1.052,1.038-1.849c-0.224-0.796-1.057-1.258-1.849-1.038	l-10.486,2.952c-0.798,0.226-1.262,1.052-1.038,1.849C28.824,16.748,29.425,17.18,30.08,17.18z M30.08,26.17	c0.134,0,0.271-0.018,0.406-0.055l10.487-2.953c0.798-0.226,1.261-1.052,1.038-1.849c-0.224-0.796-1.057-1.258-1.849-1.037	l-10.486,2.952c-0.798,0.225-1.262,1.052-1.038,1.848C28.824,25.739,29.425,26.17,30.08,26.17z M30.08,35.163	c0.134,0,0.271-0.019,0.406-0.057l10.487-2.952c0.798-0.226,1.261-1.052,1.038-1.849c-0.224-0.797-1.057-1.258-1.849-1.038	l-10.486,2.952c-0.798,0.225-1.262,1.052-1.038,1.848C28.824,34.73,29.425,35.163,30.08,35.163z M18.495,14.238L8.008,11.286	c-0.792-0.221-1.625,0.242-1.848,1.038C5.936,13.12,6.4,13.947,7.198,14.173l10.486,2.952c0.135,0.038,0.272,0.056,0.407,0.056	c0.654,0,1.255-0.432,1.441-1.093C19.756,15.29,19.292,14.463,18.495,14.238z M18.495,23.229L8.008,20.278	c-0.792-0.221-1.625,0.241-1.848,1.037c-0.225,0.796,0.239,1.623,1.038,1.849l10.486,2.952c0.135,0.038,0.272,0.057,0.407,0.057	c0.654,0,1.255-0.432,1.441-1.094C19.756,24.282,19.292,23.455,18.495,23.229z M18.495,32.221L8.008,29.269	c-0.792-0.222-1.625,0.241-1.848,1.038c-0.225,0.796,0.239,1.623,1.038,1.85l10.486,2.951c0.135,0.038,0.272,0.057,0.407,0.057	c0.654,0,1.255-0.433,1.441-1.094C19.756,33.272,19.292,32.446,18.495,32.221z"></path>
</svg>